PathFileType	4	(X/Y/Z)	C:\Users\u0088756\Documents\documenten\software\SoftwareProjects\DC_TrackingSimulation\Data\Patient20\InputData\MarkerFile_DataSel.trc
DataRate	CameraRate	NumFrames	NumMarkers	Units	OrigDataRate	OrigDataStartFrame	OrigNumFrames
200.000000	200.000000	10	47	m	200.000000	173	230
Frame#	Times		C7		CLAV		LSHO		LUA1		LELB		LLA1		LWRA		LWRB		LFIN		RSHO		RUA1		RELB		RLA1		RWRA		RWRB		RFIN		LASI		RASI		RPSI		LPSI		LTHI		LTHI3		LKNE		LKNEmed		LTIB		LTIB2		LTIB3		LANKmed		LHEE		LTOE		LLatFoot		RTHI		RTHI2		RTHI3		RKNE		RKNEmed		RTIB		RTIB2		RTIB3		RANK		RHEE		RTOE		RLatFoot		Unlabeled50		Unlabeled51		Unlabeled52		*52
			X1	Y1	Z1	X2	Y2	Z2	X3	Y3	Z3	X4	Y4	Z4	X5	Y5	Z5	X6	Y6	Z6	X7	Y7	Z7	X8	Y8	Z8	X9	Y9	Z9	X10	Y10	Z10	X11	Y11	Z11	X12	Y12	Z12	X13	Y13	Z13	X14	Y14	Z14	X15	Y15	Z15	X16	Y16	Z16	X17	Y17	Z17	X18	Y18	Z18	X19	Y19	Z19	X20	Y20	Z20	X21	Y21	Z21	X22	Y22	Z22	X23	Y23	Z23	X24	Y24	Z24	X25	Y25	Z25	X26	Y26	Z26	X27	Y27	Z27	X28	Y28	Z28	X29	Y29	Z29	X30	Y30	Z30	X31	Y31	Z31	X32	Y32	Z32	X33	Y33	Z33	X34	Y34	Z34	X35	Y35	Z35	X36	Y36	Z36	X37	Y37	Z37	X38	Y38	Z38	X39	Y39	Z39	X40	Y40	Z40	X41	Y41	Z41	X42	Y42	Z42	X43	Y43	Z43	X44	Y44	Z44	X45	Y45	Z45	X46	Y46	Z46	X47	Y47	Z47

173	0.86	1.1613	1.4076	0.049858	1.2861	1.3393	0.026202	1.2226	1.3598	-0.14693	1.1871	1.2149	-0.20273	1.2213	1.0896	-0.23023	1.2865	0.99544	-0.2358	1.3508	0.89294	-0.17829	1.3193	0.87805	-0.24185	1.3766	0.84459	-0.21958	1.2199	1.3489	0.2217	1.1926	1.1988	0.2778	1.1937	1.0575	0.30204	1.2568	0.95359	0.331	1.3218	0.84658	0.28764	1.2631	0.83352	0.32884	1.3323	0.79541	0.3337	1.2926	0.91913	-0.099349	1.3189	0.92163	0.10696	1.1212	0.96055	0.072081	1.1129	0.95878	-0.00046709	1.2773	0.63202	-0.14804	1.2614	0.5898	-0.14027	1.3056	0.46887	-0.12233	1.3228	0.46026	0.006558	1.291	0.39771	-0.12413	1.2337	0.4492	-0.12307	1.235	0.39493	-0.13995	1.0684	0.20025	-0.035823	0.96572	0.22742	-0.052876	1.1021	0.095033	-0.060164	1.0269	0.12654	-0.13219	1.3048	0.64762	0.17922	1.2467	0.6404	0.19325	1.2766	0.59735	0.17857	1.2702	0.46097	0.15256	1.2802	0.46734	0.023642	1.2778	0.30158	0.16422	1.2232	0.30453	0.16637	1.2456	0.25483	0.16224	1.2505	0.089983	0.12221	1.1795	0.05236	0.064977	1.3646	0.059857	0.047688	1.3042	0.035469	0.13254	1.2462	0.0321	-0.54829	0.6195	0.024672	-0.53423	0.66596	0.025656	0.53891	1.1736	0.033851	0.53847
174	0.865	1.1664	1.4082	0.050274	1.291	1.3398	0.026573	1.2272	1.3605	-0.14656	1.1903	1.2158	-0.20251	1.2231	1.0903	-0.23038	1.2876	0.99564	-0.23653	1.3514	0.89243	-0.17962	1.3192	0.87782	-0.24287	1.3765	0.84396	-0.22125	1.2254	1.3496	0.222	1.1993	1.1992	0.27828	1.2016	1.0579	0.30242	1.2658	0.95445	0.33064	1.3313	0.84802	0.28653	1.2731	0.83443	0.32828	1.3426	0.79696	0.33247	1.2973	0.91995	-0.098915	1.3234	0.9221	0.10744	1.1258	0.96113	0.07225	1.1177	0.95939	-0.00038293	1.2841	0.63361	-0.14831	1.2689	0.59112	-0.14045	1.3145	0.47081	-0.12228	1.3317	0.46256	0.0065346	1.3009	0.39943	-0.1243	1.2427	0.44987	-0.12287	1.2449	0.39573	-0.13995	1.0819	0.19783	-0.036008	0.97866	0.22267	-0.053137	1.1181	0.093543	-0.060412	1.0426	0.12335	-0.13238	1.3068	0.64742	0.17948	1.2491	0.6409	0.19356	1.2786	0.59748	0.17913	1.2711	0.46107	0.15309	1.2818	0.46688	0.024827	1.2783	0.3015	0.1644	1.2237	0.30461	0.16672	1.2459	0.25486	0.16246	1.2504	0.089873	0.12239	1.1794	0.052368	0.065037	1.3645	0.059748	0.047872	1.3042	0.035321	0.13269	1.2516	0.032168	-0.54827	0.62489	0.024666	-0.53417	0.67138	0.025627	0.53891	1.1791	0.033826	0.53843
175	0.87	1.1715	1.4088	0.050765	1.2959	1.3403	0.026861	1.2318	1.361	-0.1462	1.1935	1.2168	-0.20229	1.225	1.0909	-0.23052	1.2886	0.99574	-0.23726	1.352	0.8919	-0.18097	1.3191	0.87759	-0.24392	1.3763	0.84329	-0.22295	1.2307	1.3502	0.22234	1.206	1.1996	0.27864	1.2095	1.0583	0.30276	1.2748	0.95529	0.3302	1.3408	0.84948	0.28539	1.2833	0.83537	0.32746	1.353	0.79851	0.33118	1.302	0.9207	-0.098453	1.328	0.9225	0.10794	1.1304	0.9617	0.072319	1.1223	0.96002	-0.00023194	1.2911	0.63506	-0.14848	1.2762	0.59248	-0.14067	1.323	0.47274	-0.12178	1.3407	0.46474	0.0064952	1.3106	0.40116	-0.1243	1.2515	0.45052	-0.12269	1.2547	0.39652	-0.13997	1.0946	0.19556	-0.03541	0.99189	0.21767	-0.053334	1.1348	0.092253	-0.061047	1.0581	0.12038	-0.13301	1.3093	0.64725	0.18011	1.2514	0.64146	0.19384	1.2803	0.59757	0.17966	1.2719	0.46108	0.15356	1.2808	0.46515	0.025839	1.2787	0.30142	0.16478	1.2241	0.30463	0.16704	1.2462	0.25481	0.16288	1.2502	0.089673	0.1225	1.1796	0.052508	0.064961	1.3644	0.059678	0.048018	1.304	0.035138	0.13279	1.2572	0.031982	-0.54823	0.63085	0.024667	-0.53442	0.67683	0.025623	0.53891	1.1845	0.033736	0.53842
176	0.875	1.1765	1.4093	0.051197	1.3008	1.3407	0.027123	1.2363	1.3615	-0.14585	1.1966	1.2176	-0.20206	1.2268	1.0916	-0.23064	1.2896	0.99584	-0.23806	1.3526	0.89138	-0.18237	1.3188	0.87732	-0.245	1.3761	0.84268	-0.22474	1.2361	1.3508	0.22268	1.2126	1.2	0.27904	1.2174	1.0586	0.30305	1.2837	0.95601	0.32975	1.3502	0.85091	0.2842	1.2932	0.83628	0.32686	1.3634	0.80006	0.32986	1.3068	0.92141	-0.09798	1.3325	0.92282	0.10843	1.1335	0.9614	0.072768	1.1269	0.96055	-0.00015546	1.2979	0.63656	-0.14883	1.2835	0.5938	-0.14085	1.3319	0.47452	-0.12192	1.349	0.46663	0.0066975	1.3204	0.40288	-0.12458	1.2604	0.45113	-0.12247	1.2646	0.39723	-0.13997	1.1072	0.193	-0.034733	1.0052	0.21243	-0.053528	1.1514	0.090833	-0.061595	1.074	0.11713	-0.13343	1.312	0.64709	0.18094	1.2536	0.64174	0.19418	1.2821	0.5976	0.18012	1.2726	0.46104	0.15403	1.2835	0.46644	0.02599	1.2792	0.30133	0.16511	1.2245	0.30473	0.16734	1.2465	0.25491	0.16302	1.2504	0.089733	0.1227	1.1795	0.052462	0.065216	1.3644	0.059569	0.048171	1.3039	0.034964	0.1329	1.2626	0.031858	-0.54822	0.63632	0.024674	-0.53442	0.68236	0.025669	0.53892	1.1899	0.03374	0.53847
177	0.88	1.1816	1.4098	0.051607	1.3058	1.3413	0.027267	1.2409	1.362	-0.14551	1.1996	1.2184	-0.20179	1.2286	1.0922	-0.23071	1.2904	0.99594	-0.23881	1.3532	0.89085	-0.18379	1.3186	0.87702	-0.246	1.3756	0.84186	-0.22659	1.2416	1.3513	0.22302	1.2193	1.2003	0.27941	1.2252	1.0589	0.30335	1.2928	0.95694	0.32932	1.3597	0.8524	0.28299	1.3032	0.83721	0.32624	1.3737	0.80161	0.32849	1.3115	0.92208	-0.097521	1.3372	0.92311	0.109	1.1366	0.96126	0.074066	1.1316	0.96109	-0.00011913	1.3047	0.63804	-0.14917	1.2908	0.5951	-0.14105	1.3405	0.47634	-0.12182	1.3575	0.4686	0.0066563	1.3299	0.40474	-0.12491	1.2691	0.45166	-0.12225	1.2742	0.39797	-0.13999	1.121	0.19016	-0.034664	1.0189	0.20696	-0.053617	1.1683	0.089353	-0.062184	1.0901	0.11382	-0.13394	1.3143	0.64683	0.18147	1.2533	0.64268	0.19502	1.284	0.59764	0.18061	1.2735	0.46101	0.15443	1.2846	0.46645	0.026441	1.2796	0.3013	0.16544	1.225	0.30483	0.16755	1.2468	0.25487	0.16335	1.2501	0.089533	0.12283	1.1795	0.05248	0.065205	1.3643	0.059483	0.048346	1.3038	0.034824	0.13302	1.2682	0.032148	-0.54808	0.64131	0.024701	-0.53413	0.68769	0.025605	0.53899	1.1955	0.033765	0.53842
178	0.885	1.1867	1.4102	0.052022	1.3107	1.3416	0.027511	1.2455	1.3624	-0.14517	1.2026	1.2192	-0.20153	1.2304	1.0928	-0.2308	1.2913	0.99594	-0.23958	1.3537	0.89032	-0.18524	1.3182	0.87673	-0.24701	1.3752	0.84124	-0.22842	1.2469	1.3517	0.22335	1.2258	1.2005	0.2797	1.2331	1.0592	0.30363	1.3017	0.95773	0.32884	1.3692	0.85387	0.28176	1.3132	0.83814	0.32547	1.3841	0.8032	0.32711	1.3163	0.92269	-0.097063	1.3416	0.92325	0.10946	1.141	0.96169	0.074207	1.1363	0.96153	-0.00015702	1.3113	0.63944	-0.14931	1.298	0.59636	-0.14123	1.349	0.47814	-0.12174	1.3659	0.47068	0.0066143	1.3393	0.40636	-0.1251	1.2778	0.45215	-0.12196	1.2838	0.39865	-0.13999	1.1352	0.18715	-0.034907	1.0327	0.20128	-0.053791	1.1853	0.087833	-0.062837	1.1067	0.11025	-0.13436	1.3166	0.64653	0.18193	1.2553	0.64292	0.19496	1.286	0.59763	0.18103	1.2745	0.46108	0.15485	1.2855	0.46637	0.026839	1.28	0.30124	0.16577	1.2254	0.30494	0.16777	1.2471	0.25492	0.16352	1.25	0.089443	0.12291	1.1794	0.052467	0.065361	1.3643	0.059391	0.048484	1.3037	0.034696	0.13321	1.2736	0.032139	-0.54815	0.64682	0.024653	-0.53428	0.69315	0.025589	0.539	1.2009	0.03372	0.53845
179	0.89	1.1917	1.4106	0.052452	1.3157	1.3419	0.027763	1.2501	1.3628	-0.14482	1.2056	1.2199	-0.20121	1.2322	1.0934	-0.23085	1.2921	0.99604	-0.2404	1.3543	0.88976	-0.18675	1.3178	0.8764	-0.24801	1.3752	0.84078	-0.23026	1.2523	1.3521	0.22368	1.2325	1.2008	0.28001	1.2409	1.0594	0.3039	1.3107	0.95851	0.32837	1.3786	0.85534	0.2805	1.3234	0.83892	0.32452	1.3945	0.80477	0.3257	1.3211	0.92326	-0.096584	1.3461	0.92336	0.10994	1.1456	0.9621	0.074105	1.1408	0.96198	-0.0001123	1.3183	0.64084	-0.14985	1.3052	0.59762	-0.14142	1.3573	0.4799	-0.12157	1.3741	0.4727	0.006573	1.3485	0.40801	-0.12536	1.2864	0.45256	-0.12175	1.2934	0.39925	-0.14002	1.1503	0.18417	-0.035371	1.0469	0.19579	-0.054129	1.2025	0.086251	-0.063555	1.1231	0.10685	-0.13492	1.3187	0.64632	0.18239	1.2572	0.64303	0.19491	1.2876	0.59753	0.18166	1.2754	0.46109	0.15519	1.2864	0.46627	0.027273	1.2801	0.30115	0.16627	1.2258	0.30505	0.16796	1.2473	0.25497	0.1638	1.25	0.089363	0.1231	1.1793	0.052493	0.065524	1.3642	0.059279	0.048625	1.3037	0.034483	0.13319	1.2791	0.03215	-0.5482	0.65223	0.024631	-0.53426	0.69864	0.025596	0.53897	1.2062	0.03355	0.53845
180	0.895	1.1968	1.4109	0.052919	1.3206	1.3422	0.028009	1.2547	1.3631	-0.1445	1.2085	1.2205	-0.20083	1.234	1.0939	-0.23088	1.293	0.99594	-0.2412	1.355	0.88918	-0.18824	1.3174	0.87607	-0.24904	1.3749	0.84014	-0.23216	1.2577	1.3524	0.22399	1.239	1.2009	0.28033	1.2487	1.0596	0.30412	1.3196	0.95926	0.3278	1.3881	0.85683	0.27923	1.3334	0.83983	0.32372	1.4048	0.80633	0.32421	1.3259	0.92375	-0.096126	1.3505	0.92343	0.11041	1.1503	0.96237	0.074046	1.1455	0.96237	-0.00010479	1.325	0.64215	-0.15012	1.3123	0.59881	-0.14166	1.3656	0.48164	-0.12148	1.3821	0.47461	0.006553	1.3577	0.40965	-0.12537	1.2948	0.45276	-0.12158	1.303	0.39977	-0.14004	1.165	0.181	-0.035681	1.0611	0.18971	-0.053857	1.2197	0.084641	-0.064309	1.1395	0.10361	-0.13571	1.3208	0.64602	0.18278	1.2594	0.6433	0.19516	1.2894	0.59746	0.18188	1.2764	0.46108	0.15554	1.2874	0.46618	0.027712	1.2807	0.30111	0.16641	1.2261	0.30512	0.16814	1.2483	0.25502	0.16346	1.25	0.089283	0.12319	1.1793	0.05234	0.065371	1.3641	0.059139	0.048743	1.3036	0.034303	0.13327	1.2844	0.031989	-0.5482	0.65825	0.024654	-0.53442	0.70413	0.025603	0.53895	1.2118	0.033777	0.53846
181	0.9	1.2019	1.4112	0.053305	1.3255	1.3424	0.02826	1.2593	1.3634	-0.14419	1.2115	1.2211	-0.20045	1.2359	1.0944	-0.23089	1.2938	0.99594	-0.242	1.3558	0.88859	-0.18979	1.317	0.87569	-0.25	1.3745	0.83946	-0.23409	1.2631	1.3527	0.22431	1.2456	1.2011	0.28064	1.2565	1.0598	0.30433	1.3285	0.95999	0.32726	1.3975	0.85828	0.27796	1.3433	0.84073	0.32295	1.4151	0.80793	0.32272	1.3307	0.9242	-0.095674	1.355	0.92344	0.11087	1.1548	0.96272	0.073944	1.1502	0.96262	-0.00021256	1.3317	0.64342	-0.15043	1.3193	0.60002	-0.14185	1.3736	0.48333	-0.12141	1.3904	0.47672	0.0062551	1.3679	0.41095	-0.12467	1.3035	0.453	-0.12141	1.3125	0.40019	-0.14012	1.1802	0.17767	-0.036067	1.0759	0.1837	-0.053992	1.2371	0.08296	-0.065185	1.1559	0.099843	-0.13624	1.323	0.64569	0.18311	1.2618	0.64364	0.19531	1.2914	0.59742	0.18219	1.2774	0.4611	0.15585	1.2885	0.46608	0.028152	1.2809	0.30104	0.16683	1.2265	0.30527	0.16829	1.2486	0.25505	0.16363	1.2503	0.089293	0.12311	1.1794	0.052313	0.065387	1.3641	0.059048	0.048865	1.3036	0.034144	0.13336	1.2899	0.031874	-0.54826	0.66321	0.024645	-0.53434	0.70954	0.025578	0.53893	1.2173	0.033797	0.53844
182	0.905	1.207	1.4114	0.053748	1.3305	1.3425	0.028494	1.264	1.3636	-0.14387	1.2143	1.2217	-0.20002	1.2377	1.0948	-0.23086	1.2947	0.99584	-0.24276	1.3563	0.88815	-0.19155	1.3165	0.87533	-0.25102	1.3741	0.83875	-0.23604	1.2685	1.353	0.22462	1.2522	1.2012	0.28088	1.2643	1.0599	0.30447	1.3373	0.96072	0.32673	1.4069	0.85974	0.27667	1.3532	0.84157	0.32211	1.4254	0.80949	0.32118	1.3355	0.92458	-0.095248	1.3595	0.92341	0.11131	1.1595	0.96293	0.073805	1.1547	0.96289	-0.0002805	1.3383	0.6446	-0.15078	1.3263	0.60114	-0.14203	1.3816	0.48498	-0.12128	1.3981	0.47853	0.0062193	1.3769	0.41239	-0.12474	1.3117	0.45307	-0.12141	1.322	0.40048	-0.14019	1.1948	0.17435	-0.036584	1.0906	0.17764	-0.053954	1.2546	0.081331	-0.066073	1.1731	0.096503	-0.13675	1.3253	0.64536	0.18343	1.2638	0.64361	0.19532	1.2933	0.59734	0.18242	1.2781	0.46099	0.15611	1.2897	0.46597	0.028533	1.2813	0.30096	0.16707	1.2268	0.30533	0.16834	1.2488	0.25506	0.16381	1.2501	0.089123	0.12339	1.1789	0.052333	0.065623	1.3642	0.058921	0.048992	1.3036	0.03401	0.1334	1.2954	0.031965	-0.54823	0.66869	0.024604	-0.53431	0.7151	0.025629	0.53887	1.2227	0.033941	0.53867
